<?xml version="1.0" standalone="no"?>
<!DOCTYPE svg PUBLIC "-//W3C//DTD SVG 1.1//EN" "http://www.w3.org/Graphics/SVG/1.1/DTD/svg11.dtd">
<svg xmlns="http://www.w3.org/2000/svg" xmlns:xlink="http://www.w3.org/1999/xlink" version="1.1" id="Layer_1" x="0px" y="0px" viewBox="0 0 1080 1080" enable-background="new 0 0 1080 1080" xml:space="preserve" width="1080" height="1080">
<g>
	<g>
		<path d="M183.76,452.09c-7.42,29.37-11.18,59.63-11.18,89.95c0,24.78,2.5,49.58,7.43,73.72l0.11,0.55l5.78-1.87l-0.09-0.44    c-4.79-23.61-7.22-47.82-7.22-71.96c0-29.62,3.66-59.21,10.88-87.96l0.11-0.44l-5.69-2.09L183.76,452.09z"/>
		<path d="M896.5,453.22l-0.13-0.53l-5.72,2l0.11,0.45c7.05,28.47,10.63,57.71,10.63,86.9c0,24.56-2.5,49.14-7.43,73.05l-0.09,0.44    l5.76,1.87l0.11-0.55c5.09-24.54,7.68-49.71,7.68-74.82C907.42,512.16,903.74,482.28,896.5,453.22z"/>
	</g>
	<g>
		<path d="M187.22,369.98l9.05,3.65l-7.26,18l58.55,23.63l-4.47,11.09l-58.55-23.64l-7.3,18.09l-9.05-3.65L187.22,369.98z"/>
		<path d="M279.31,357.43l-33.61-1.57l-4.92,7.69l24.56,15.7l-6.43,10.07l-61.42-39.26l13.56-21.21c3.02-4.71,6.39-8.18,10.13-10.39    c3.74-2.22,7.52-3.25,11.32-3.1c3.81,0.15,7.42,1.32,10.83,3.5c4.01,2.56,6.9,6.05,8.69,10.47c1.78,4.42,1.72,9.42-0.19,15.01    l35.17,1.07L279.31,357.43z M232.74,358.41l7.11-11.13c2.41-3.77,3.29-7.22,2.63-10.33c-0.66-3.12-2.58-5.7-5.77-7.73    c-3.18-2.03-6.28-2.68-9.28-1.95s-5.73,3.02-8.17,6.85l-7.12,11.13L232.74,358.41z"/>
		<path d="M314.3,294.46l-21.41,21.75l6.94,14.18l-8.76,8.9l-33.7-69.82l9.72-9.87l70.34,32.6l-8.83,8.97L314.3,294.46z M305,290.01    l-32.46-15.32l15.76,32.29L305,290.01z"/>
		<path d="M311.89,221.53l25.68,38.72c3.05,4.6,6.56,7.27,10.53,8c3.96,0.73,8.1-0.34,12.41-3.2c4.38-2.9,7-6.31,7.87-10.25    c0.87-3.93-0.22-8.2-3.27-12.81l-25.68-38.72l9.97-6.61l25.57,38.55c3.28,4.95,4.99,9.86,5.11,14.73    c0.12,4.86-1.06,9.34-3.55,13.43c-2.5,4.09-5.93,7.58-10.3,10.48c-4.36,2.9-8.9,4.69-13.61,5.38c-4.7,0.69-9.25,0.01-13.62-2.04    c-4.38-2.04-8.2-5.54-11.49-10.5l-25.57-38.54L311.89,221.53z"/>
		<path d="M449.86,155.93L474,224.71l-11.28,3.96l-16.53-47.11l-4.45,54.47l-7.82,2.74l-37.61-39.71l16.53,47.11l-11.28,3.96    l-24.14-68.78l12.17-4.27l43.07,45.46l5.12-62.38L449.86,155.93z"/>
		<path d="M528.43,204.39l-30.39,2.82l-3.84,15.32l-12.43,1.15l19.26-75.1l13.78-1.28l32.76,70.27l-12.54,1.16L528.43,204.39z     M524.19,194.99l-14.93-32.64l-8.77,34.84L524.19,194.99z"/>
		<path d="M599.33,166.19c4.52-4.76,9.92-8.04,16.19-9.84c6.28-1.8,12.71-1.94,19.32-0.39c7.56,1.76,13.85,5.19,18.87,10.28    c5.02,5.09,8.06,11.35,9.13,18.78l-13.99-3.27c-0.97-4.17-2.87-7.56-5.71-10.16c-2.84-2.6-6.4-4.4-10.69-5.41    c-4.7-1.09-9.13-1.01-13.3,0.24c-4.17,1.25-7.76,3.61-10.76,7.07c-3,3.46-5.11,7.81-6.33,13.06c-1.23,5.24-1.26,10.08-0.11,14.51    c1.16,4.44,3.32,8.16,6.5,11.16c3.18,3.01,7.11,5.05,11.81,6.15c4.29,1.01,8.29,0.97,11.98-0.11c3.7-1.08,6.9-3.27,9.62-6.59    l13.99,3.27c-4.25,6.19-9.75,10.43-16.49,12.74c-6.75,2.29-13.9,2.57-21.46,0.8c-6.67-1.56-12.41-4.53-17.2-8.92    c-4.79-4.38-8.16-9.71-10.1-15.98c-1.95-6.27-2.1-12.88-0.48-19.82C591.73,176.81,594.81,170.96,599.33,166.19z"/>
		<path d="M698.39,188.06l-8.9,19.46l22.89,10.48l-4.06,8.87l-22.89-10.48l-9.3,20.31l25.75,11.79l-4.05,8.87l-36.63-16.77    l30.39-66.38l36.62,16.77l-4.06,8.87L698.39,188.06z"/>
		<path d="M757.66,297.97l-9.69-7.01l2.74-65.19l-31.89,44.12l-9.7-7.01l42.77-59.15l9.7,7l-2.69,65.11l31.83-44.03l9.7,7.01    L757.66,297.97z"/>
		<path d="M851.85,291.9l-7.16,6.62l-13.17-14.25l-46.37,42.85l-8.11-8.78l46.37-42.85l-13.24-14.33l7.16-6.62L851.85,291.9z"/>
		<path d="M863.06,324.3l-17.91,11.71l13.78,21.07l-8.17,5.33l-13.77-21.07l-18.7,12.22l15.5,23.7l-8.17,5.34l-22.03-33.71    l61.11-39.94l22.03,33.71l-8.16,5.33L863.06,324.3z"/>
		<path d="M846.69,428.66l20.37-26.78l-3.54-8.41l-26.88,11.31l-4.64-11.02l67.19-28.27l9.77,23.21c2.17,5.15,3.1,9.9,2.8,14.24    c-0.3,4.33-1.59,8.03-3.88,11.07c-2.28,3.04-5.29,5.36-9.03,6.93c-4.38,1.84-8.9,2.25-13.55,1.2c-4.65-1.04-8.73-3.93-12.24-8.67    l-20.85,28.34L846.69,428.66z M872.32,389.77l5.12,12.18c1.74,4.12,4.08,6.8,7.02,8.03c2.94,1.23,6.15,1.11,9.63-0.35    c3.48-1.47,5.78-3.64,6.87-6.53c1.09-2.89,0.76-6.43-1-10.62l-5.13-12.18L872.32,389.77z"/>
	</g>
	<g>
		<path d="M197.34,641.23c4.21,0.76,7.91,2.52,11.09,5.28c3.18,2.77,5.53,6.3,7.05,10.59c1.79,5.03,2.05,9.89,0.82,14.59    c-1.24,4.69-3.87,8.6-7.89,11.72l-3.68-10.38c1.78-1.79,2.88-3.81,3.29-6.06c0.41-2.25,0.18-4.6-0.68-7.05    c-0.93-2.62-2.37-4.74-4.31-6.34c-1.95-1.61-4.24-2.59-6.88-2.93c-2.64-0.35-5.46,0.01-8.47,1.07c-2.96,1.05-5.37,2.54-7.23,4.48    c-1.85,1.94-3.02,4.15-3.52,6.62c-0.51,2.47-0.29,5.03,0.64,7.64c0.87,2.45,2.18,4.42,3.94,5.89c1.76,1.49,3.89,2.36,6.41,2.63    l3.67,10.38c-5.13,0.13-9.64-1.24-13.53-4.09c-3.89-2.85-6.73-6.81-8.53-11.88c-1.52-4.3-1.92-8.53-1.19-12.67    c0.73-4.16,2.48-7.85,5.26-11.07c2.77-3.24,6.37-5.63,10.8-7.2C188.81,640.88,193.13,640.47,197.34,641.23z"/>
		<path d="M224.36,699.25l-10.64,5.48l7.36,14.29l-6.75,3.48l-7.35-14.29l-11.25,5.79l8.29,16.11l-6.93,3.56l-12.68-24.63    l42.5-21.88l12.67,24.63l-6.93,3.57L224.36,699.25z"/>
		<path d="M229.32,782.57l-5.49-7.84l14.41-36.54l-26.84,18.77l-5.48-7.84l39.17-27.4l5.49,7.84l-14.47,36.58l26.9-18.82l5.49,7.84    L229.32,782.57z"/>
		<path d="M297.33,787.08l-5.69,5.23l-8.62-9.35l-29.42,27.11l-6.49-7.04l29.42-27.11l-8.62-9.35l5.68-5.24L297.33,787.08z"/>
		<path d="M290.78,844.75l4.02-20.99l-3.44-2.92L279.32,835l-7.29-6.2l30.91-36.37l13.65,11.6c2.81,2.39,4.79,4.93,5.92,7.6    c1.14,2.67,1.49,5.27,1.04,7.8c-0.44,2.53-1.55,4.83-3.32,6.92c-2.04,2.4-4.57,3.97-7.6,4.72c-3.03,0.75-6.22,0.32-9.59-1.28    l-3.84,22.14L290.78,844.75z M296.01,815.36l6.1,5.18c1.98,1.68,3.86,2.46,5.65,2.33c1.79-0.13,3.4-1.04,4.84-2.75    c1.42-1.67,2.04-3.37,1.85-5.12c-0.19-1.75-1.28-3.46-3.26-5.15l-6.1-5.18L296.01,815.36z"/>
		<path d="M345.72,826.32l-15.89,24.9c-1.74,2.73-2.36,5.27-1.86,7.61c0.5,2.35,2.04,4.34,4.62,5.99c2.61,1.66,5.09,2.23,7.43,1.7    c2.34-0.53,4.38-2.17,6.12-4.9l15.88-24.9l8.13,5.19l-15.85,24.85c-2.18,3.43-4.76,5.84-7.75,7.27c-2.99,1.42-6.1,1.93-9.34,1.54    c-3.24-0.39-6.38-1.55-9.42-3.49c-3-1.91-5.34-4.24-7.02-6.99c-1.68-2.75-2.48-5.76-2.39-9.03c0.09-3.27,1.22-6.62,3.4-10.04    l15.85-24.85L345.72,826.32z"/>
		<path d="M422.2,868.29c2.83,3.2,4.57,6.87,5.19,11c0.63,4.13,0.07,8.43-1.66,12.88c-1.73,4.47-4.21,7.99-7.43,10.58    c-3.23,2.59-6.98,4.1-11.23,4.55c-4.26,0.45-8.73-0.23-13.4-2.04l-15.56-6.04l17.26-44.5l15.56,6.04    C415.59,862.58,419.35,865.09,422.2,868.29z M408.6,897.93c3.54-1.55,6.21-4.66,8.01-9.29c1.8-4.63,1.93-8.75,0.39-12.36    c-1.54-3.6-4.64-6.31-9.32-8.12l-6.31-2.45l-11.4,29.39l6.31,2.45C400.96,899.37,405.06,899.49,408.6,897.93z"/>
		<path d="M451.26,881.98l-2.82,11.63l15.62,3.78l-1.79,7.38l-15.62-3.78l-2.98,12.3l17.61,4.27l-1.84,7.57l-26.91-6.52l11.25-46.46    l26.92,6.53l-1.84,7.57L451.26,881.98z"/>
		<path d="M528.6,907.26c-1.36,2.14-3.38,3.8-6.04,4.99c-2.66,1.18-5.95,1.63-9.86,1.35l-7.98-0.57l-1.3,18.28l-9.55-0.68l3.4-47.61    l17.53,1.25c3.69,0.26,6.78,1.13,9.28,2.58c2.5,1.46,4.32,3.35,5.46,5.67c1.14,2.32,1.6,4.89,1.4,7.7    C530.74,902.77,529.97,905.12,528.6,907.26z M518.82,904.47c1.36-1.12,2.12-2.77,2.27-4.95c0.34-4.63-2.09-7.14-7.28-7.51    l-7.57-0.54l-0.99,13.85l7.57,0.54C515.47,906.05,517.46,905.59,518.82,904.47z"/>
		<path d="M550.22,931.43c-2.72-0.99-4.92-2.52-6.58-4.57c-1.66-2.05-2.6-4.54-2.8-7.45l10.25-0.55c0.24,1.95,1.01,3.46,2.33,4.53    c1.31,1.07,3.06,1.55,5.25,1.43c2.23-0.12,3.96-0.75,5.17-1.89c1.22-1.14,1.78-2.57,1.69-4.3c-0.08-1.41-0.57-2.54-1.49-3.41    c-0.91-0.86-2.03-1.52-3.36-1.98c-1.32-0.46-3.14-0.94-5.45-1.45c-3.15-0.75-5.71-1.51-7.69-2.29c-1.98-0.78-3.72-2.03-5.2-3.76    s-2.31-4.09-2.47-7.09c-0.15-2.82,0.42-5.32,1.72-7.49c1.29-2.17,3.19-3.88,5.68-5.13c2.49-1.25,5.37-1.97,8.65-2.14    c4.91-0.26,8.97,0.72,12.17,2.94c3.21,2.23,5.08,5.47,5.63,9.73l-10.52,0.56c-0.18-1.64-0.95-2.95-2.3-3.95    c-1.35-1-3.1-1.44-5.24-1.33c-1.87,0.1-3.33,0.66-4.39,1.68c-1.07,1.01-1.54,2.44-1.45,4.26c0.07,1.27,0.54,2.31,1.43,3.11    c0.89,0.79,1.97,1.42,3.25,1.88c1.28,0.46,3.08,0.97,5.39,1.52c3.15,0.75,5.72,1.52,7.73,2.32s3.76,2.08,5.28,3.82    c1.51,1.75,2.34,4.1,2.5,7.05c0.14,2.55-0.4,4.95-1.59,7.21c-1.21,2.26-3.05,4.1-5.53,5.53c-2.49,1.43-5.48,2.25-8.98,2.44    C555.96,932.84,552.94,932.43,550.22,931.43z"/>
		<path d="M592.53,880.7l6.92,47.23l-9.48,1.39l-6.91-47.23L592.53,880.7z"/>
		<path d="M642.2,869.44L654,915.69l-9.28,2.37l-5.02-19.68l-19.82,5.05l5.03,19.68l-9.28,2.37l-11.81-46.25l9.28-2.36l4.85,19.02    l19.82-5.06l-4.85-19.02L642.2,869.44z"/>
		<path d="M681.26,902.93c-4.26-0.43-8.13-1.92-11.62-4.46c-3.49-2.54-6.16-5.96-8.04-10.27c-1.85-4.27-2.51-8.54-1.98-12.82    s2.09-8.12,4.69-11.54c2.59-3.41,5.94-6.01,10.04-7.79c4.14-1.8,8.33-2.48,12.58-2.03c4.24,0.45,8.09,1.94,11.57,4.49    c3.46,2.55,6.12,5.95,7.97,10.22c1.87,4.31,2.55,8.6,2.04,12.87c-0.51,4.27-2.06,8.11-4.65,11.52c-2.59,3.41-5.94,6.01-10.04,7.79    C689.71,902.69,685.53,903.36,681.26,902.93z M696.59,888.26c1.49-2.06,2.32-4.45,2.49-7.16c0.17-2.71-0.38-5.52-1.66-8.45    c-1.27-2.93-2.94-5.24-5.03-6.95c-2.08-1.71-4.38-2.71-6.9-3.01c-2.52-0.3-5.09,0.13-7.73,1.26c-2.63,1.15-4.71,2.75-6.23,4.79    c-1.52,2.05-2.37,4.42-2.54,7.1c-0.17,2.69,0.37,5.5,1.64,8.42c1.28,2.93,2.96,5.26,5.05,6.99c2.08,1.73,4.41,2.74,6.95,3.06    c2.54,0.31,5.14-0.11,7.77-1.25C693.04,891.93,695.1,890.33,696.59,888.26z"/>
		<path d="M730.71,826.32l4.01,6.6l-10.88,6.6l20.76,34.2l-8.17,4.97l-20.77-34.2l-10.87,6.6l-4.01-6.61L730.71,826.32z"/>
		<path d="M749.09,822.12l7.32,9.46l12.7-9.83l4.65,6.01l-12.71,9.83l7.75,10.01l14.33-11.09l4.77,6.16l-21.9,16.95l-29.25-37.8    l21.91-16.95l4.77,6.16L749.09,822.12z"/>
		<path d="M818.22,814.27l-20.58-5.78l-3.21,3.18l13.11,13.2l-6.8,6.75l-33.63-33.86l12.71-12.63c2.62-2.6,5.31-4.35,8.07-5.27    c2.76-0.91,5.37-1.04,7.86-0.39c2.48,0.66,4.68,1.95,6.61,3.89c2.22,2.23,3.57,4.89,4.05,7.97c0.5,3.08-0.2,6.23-2.08,9.45    l21.74,5.68L818.22,814.27z M789.38,806.58l5.68-5.64c1.84-1.83,2.77-3.64,2.8-5.43c0.01-1.79-0.76-3.48-2.33-5.06    c-1.54-1.55-3.2-2.3-4.95-2.26c-1.76,0.04-3.55,0.98-5.4,2.81l-5.68,5.64L789.38,806.58z"/>
		<path d="M847.7,765.04l-11.5,15.14l5.33,8l-6.07,8.01l-27.68-42.58l6.74-8.87l48.45,15.24l-6.12,8.06L847.7,765.04z     M840.04,762.48l-20.08-6.58l11.73,17.58L840.04,762.48z"/>
		<path d="M864.28,706.23c1.35,2.15,2,4.68,1.92,7.59s-1.07,6.08-2.99,9.5l-3.93,6.97l15.97,8.99l-4.7,8.34l-41.59-23.42l8.63-15.32    c1.81-3.22,3.91-5.64,6.29-7.28c2.39-1.64,4.87-2.48,7.46-2.51c2.58-0.04,5.11,0.64,7.57,2.02    C861.14,702.38,862.93,704.08,864.28,706.23z M857.58,713.88c-0.43-1.71-1.59-3.1-3.5-4.17c-4.05-2.28-7.35-1.16-9.9,3.37    l-3.73,6.61l12.09,6.81l3.73-6.61C857.57,717.58,858,715.58,857.58,713.88z"/>
		<path d="M853.05,677.51l43.58,19.45l-3.9,8.74l-43.59-19.44L853.05,677.51z"/>
		<path d="M868.31,659.71l11.32,3.88l5.21-15.2l7.18,2.46l-5.21,15.2l11.97,4.1l5.87-17.14l7.37,2.53l-8.98,26.2l-45.22-15.5    l8.98-26.2l7.37,2.52L868.31,659.71z"/>
	</g>
	<path fill="#EFDCFF" d="M694.87,390.55c61.54,52.36,51,109.58,8.43,234.46c-21.96,64.42-90.36,103.28-122.79,111.17   c-50.75,12.34-224.98-72.2-235.38-148.28c-10.41-76.08,0.55-131.94,84.12-186.27S612.03,320.07,694.87,390.55z"/>
	<path fill="#00B5AC" d="M788.39,433.36C776.6,380.15,643.21,411.18,541,526.6c-111.7-111.7-229.46-143.54-248.47-92.72   c-13.21,35.33,67.45,71.95,177.86,99.38c-73.72,1.37-142.73,16.89-144.93,51.21c-5.01,78.13,217.68-32.44,217.68-32.44   c8.94,3.91,228.33,100.08,215.72,24.42c-6.36-38.12-80.86-45.65-148.4-44.91C698.42,498.62,796.78,471.2,788.39,433.36z"/>
	<g>
		<path fill="none" d="M546.64,481.52c1.7-2.42,1.91-5.42,0.55-8.05c-1.34-2.58-3.85-4.14-6.75-4.19c-2.9,0.05-5.41,1.61-6.75,4.19    c-1.36,2.62-1.15,5.63,0.55,8.05l6.2,9.24L546.64,481.52z"/>
		<path fill="none" d="M581.95,823.37c3.05,1.07,5.39,0.52,7.17-1.7c1.85-2.29,1.61-3.82,1.28-4.77    c-2.08-5.87-15.99-11.45-27.25-14.57C569.34,814.24,576.09,821.3,581.95,823.37z"/>
		<path fill="none" d="M586.79,534.97c0.25-0.15,0.52-0.28,0.81-0.36c6.86-1.76,13.75-3.58,20.48-5.4l0.06-0.02    c115.28-31.19,181.74-62.26,182.34-85.24c0.2-7.5-3.49-12.77-11.26-16.12c-37.33-16.07-152.64,19.96-235.8,102.6    c0.01,4.98,0.03,9.95,0.05,14.9c3.94-0.89,11.63-2.66,21.87-5.15c1.63-0.4,3.27,0.6,3.67,2.23c0.4,1.63-0.6,3.27-2.23,3.67    c-5.38,1.31-10.05,2.42-13.86,3.31c53.44,16,165.9,44.41,189.18,25.88c2.93-2.33,4.15-5.23,3.85-9.11    c-1.19-15.08-25.67-22.49-46-26.06c-22.84-4.01-53.31-5.67-90.57-4.96c-6.66,1.8-13.47,3.6-20.24,5.34    c-0.25,0.07-0.51,0.1-0.76,0.1c-1.35,0-2.58-0.91-2.94-2.28c-0.25-0.99,0.01-1.98,0.62-2.7L586.79,534.97z"/>
		<path fill="none" d="M512.57,542.8c0.4-1.63,2.03-2.63,3.66-2.23c10.24,2.48,17.74,4.2,21.17,4.97    c-0.02-4.79-0.04-9.59-0.05-14.38c-0.09-0.07-0.18-0.13-0.26-0.21c-83.2-83.01-198.91-119.21-236.32-103.11    c-7.78,3.35-11.46,8.62-11.26,16.12c0.6,22.98,67.06,54.04,182.34,85.24c7.25,1.96,14.69,3.92,22.11,5.82    c1.62,0.42,2.6,2.07,2.19,3.69c-0.35,1.37-1.58,2.28-2.94,2.28c-0.25,0-0.5-0.03-0.76-0.1c-7.32-1.88-14.66-3.81-21.82-5.74    c-37.26-0.71-67.73,0.95-90.57,4.96c-20.33,3.56-44.81,10.98-46,26.06c-0.31,3.88,0.92,6.78,3.85,9.11    c23.28,18.52,135.74-9.88,189.18-25.88c-3.43-0.8-7.58-1.79-12.3-2.93C513.17,546.07,512.17,544.43,512.57,542.8z"/>
		<path d="M796.55,444.11c0.26-9.98-4.9-17.53-14.93-21.85c-20.41-8.78-60.78-3.31-105.37,14.28    c-48.4,19.1-95.33,49.31-132.85,85.42c-0.01-8.26-0.01-16.55-0.01-24.87l8.53-12.08c2.99-4.24,3.37-9.73,0.98-14.34    c-2.34-4.52-6.92-7.36-11.99-7.47l-0.29,0c-5.07,0.1-9.65,2.94-11.99,7.46c-2.39,4.61-2.01,10.1,0.98,14.34l7.72,12.08    c0,8.89,0,16.66,0.02,25.58c-37.64-36.43-84.86-66.91-133.59-86.13c-44.59-17.59-84.96-23.07-105.37-14.28    c-10.03,4.32-15.19,11.87-14.93,21.85c0.42,16.06,22.19,32.91,66.56,51.51c25.99,10.9,58.99,22.08,98.31,33.32    c-27.62,0.22-50.87,1.95-69.3,5.19c-32.64,5.72-49.8,16.34-51,31.55c-0.47,5.91,1.59,10.73,6.12,14.34    c6.16,4.9,17.24,7.35,33.13,7.35c20,0,47.64-3.88,82.72-11.63c40.13-8.87,77.75-20.19,87.38-23.14v145.9    c0,45.82,7.71,78.74,17.39,100.17c0.08,0.29,0.21,0.56,0.37,0.82c8.04,17.47,17.38,27.11,24.77,29.72    c1.66,0.58,3.28,0.87,4.83,0.87c3.6,0,6.82-1.54,9.21-4.52c3.49-4.33,3.17-8.21,2.29-10.7c-4.05-11.47-29.68-18.16-36.5-19.76    c-9.07-21.02-16.18-53.37-16.18-96.6V552.87c10.92,3.34,47.51,14.26,86.47,22.86c35.08,7.75,62.72,11.63,82.72,11.63    c15.9,0,26.97-2.45,33.13-7.35c4.53-3.6,6.58-8.42,6.12-14.34c-1.2-15.21-18.36-25.83-51-31.55c-18.43-3.23-41.67-4.97-69.29-5.19    C671,517.7,704,506.52,729.99,495.63C774.36,477.03,796.13,460.17,796.55,444.11z M590.4,816.9c0.34,0.95,0.57,2.47-1.28,4.77    c-1.78,2.21-4.13,2.77-7.17,1.7c-5.87-2.07-12.61-9.12-18.8-21.04C574.41,805.45,588.33,811.03,590.4,816.9z M534.24,481.52    c-1.7-2.42-1.91-5.42-0.55-8.05c1.34-2.58,3.85-4.14,6.75-4.19c2.9,0.05,5.41,1.61,6.75,4.19c1.36,2.62,1.15,5.63-0.55,8.05    l-6.2,9.24L534.24,481.52z M337.92,575.27c-2.93-2.33-4.15-5.23-3.85-9.11c1.19-15.08,25.67-22.49,46-26.06    c22.84-4.01,53.32-5.67,90.57-4.96c7.16,1.94,14.5,3.87,21.82,5.74c0.25,0.06,0.51,0.1,0.76,0.1c1.35,0,2.58-0.91,2.94-2.28    c0.42-1.62-0.56-3.28-2.19-3.69c-7.42-1.9-14.86-3.86-22.11-5.82C356.58,498,290.12,466.93,289.52,443.95    c-0.2-7.5,3.49-12.77,11.26-16.12c37.41-16.1,153.12,20.1,236.32,103.11c0.08,0.08,0.17,0.14,0.26,0.21    c0.01,4.8,0.03,9.59,0.05,14.38c-3.43-0.77-10.93-2.49-21.17-4.97c-1.63-0.4-3.27,0.61-3.66,2.23c-0.39,1.63,0.61,3.27,2.23,3.66    c4.72,1.14,8.86,2.13,12.3,2.93C473.65,565.39,361.2,593.8,337.92,575.27z M585.42,538.3c0.35,1.37,1.59,2.28,2.94,2.28    c0.25,0,0.5-0.03,0.76-0.1c6.78-1.74,13.59-3.54,20.24-5.34c37.26-0.71,67.73,0.96,90.57,4.96c20.33,3.56,44.81,10.98,46,26.06    c0.31,3.88-0.91,6.78-3.85,9.11c-23.28,18.53-135.74-9.88-189.18-25.88c3.81-0.89,8.49-2,13.86-3.31c1.63-0.4,2.63-2.04,2.23-3.67    c-0.4-1.63-2.04-2.63-3.67-2.23c-10.24,2.49-17.93,4.26-21.87,5.15c-0.02-4.95-0.04-9.92-0.05-14.9    c83.16-82.64,198.47-118.67,235.8-102.6c7.78,3.35,11.46,8.62,11.26,16.12c-0.6,22.98-67.06,54.05-182.34,85.24l-0.06,0.02    c-6.73,1.82-13.62,3.64-20.48,5.4c-0.3,0.08-0.56,0.21-0.81,0.36l-0.75,0.63C585.43,536.33,585.16,537.32,585.42,538.3z"/>
	</g>
</g>
</svg>