<?xml version="1.0" standalone="no"?>
<!DOCTYPE svg PUBLIC "-//W3C//DTD SVG 1.1//EN" "http://www.w3.org/Graphics/SVG/1.1/DTD/svg11.dtd">
<svg xmlns="http://www.w3.org/2000/svg" xmlns:xlink="http://www.w3.org/1999/xlink" version="1.1" id="Layer_1" x="0px" y="0px" viewBox="0 0 1920 1080" enable-background="new 0 0 1920 1080" xml:space="preserve" width="1920" height="1080">
<g>
	<g>
		<path d="M1055.76,634.5c4.97-8.48,11.73-15.11,20.27-19.88c8.54-4.76,17.88-7.15,28.04-7.15c11.62,0,21.97,2.86,31.03,8.56    c9.06,5.71,15.63,13.8,19.71,24.27h-21.52c-2.82-5.76-6.76-10.05-11.78-12.88c-5.03-2.83-10.84-4.24-17.44-4.24    c-7.23,0-13.67,1.62-19.32,4.87c-5.66,3.25-10.08,7.91-13.28,13.98c-3.19,6.08-4.79,13.15-4.79,21.21c0,8.07,1.6,15.14,4.79,21.21    c3.19,6.07,7.62,10.76,13.28,14.06c5.65,3.3,12.09,4.95,19.32,4.95c6.6,0,12.41-1.41,17.44-4.24c5.03-2.83,8.96-7.12,11.78-12.88    h21.52c-4.08,10.48-10.65,18.53-19.71,24.19c-9.06,5.65-19.41,8.48-31.03,8.48c-10.27,0-19.64-2.38-28.12-7.15    c-8.48-4.77-15.22-11.39-20.19-19.88c-4.97-8.48-7.46-18.06-7.46-28.75C1048.3,652.57,1050.79,642.99,1055.76,634.5z"/>
		<path d="M1193.61,623.35v32.05h37.7V670h-37.7v33.46h42.42v14.61h-60.32V608.74h60.32v14.61H1193.61z"/>
		<path d="M1347.73,718.08h-17.9l-53.89-81.53v81.53h-17.9V608.74h17.9l53.89,81.37v-81.37h17.9V718.08z"/>
		<path d="M1441.82,608.89v14.61h-29.06v94.57h-17.9v-94.57h-29.22v-14.61H1441.82z"/>
		<path d="M1477.79,623.35v32.05h37.7V670h-37.7v33.46h42.42v14.61h-60.32V608.74h60.32v14.61H1477.79z"/>
		<path d="M1598.91,718.08l-25.13-43.67h-13.67v43.67h-17.9V608.89h37.7c8.38,0,15.48,1.47,21.29,4.4    c5.81,2.94,10.16,6.86,13.04,11.78c2.88,4.93,4.32,10.42,4.32,16.49c0,7.12-2.07,13.59-6.2,19.4c-4.14,5.81-10.5,9.77-19.09,11.86    l27.02,45.24H1598.91z M1560.11,660.11h19.79c6.7,0,11.76-1.67,15.16-5.03c3.4-3.35,5.1-7.85,5.1-13.51    c0-5.65-1.68-10.07-5.03-13.27c-3.35-3.19-8.43-4.79-15.24-4.79h-19.79V660.11z"/>
	</g>
	<g>
		<g>
			<path d="M375.91,608.89v14.61h-29.06v94.57h-17.91v-94.57h-29.22v-14.61H375.91z"/>
			<path d="M450.69,718.08l-25.14-43.67h-13.67v43.67h-17.91V608.89h37.7c8.38,0,15.47,1.47,21.29,4.4     c5.81,2.94,10.16,6.86,13.04,11.78c2.88,4.93,4.32,10.42,4.32,16.49c0,7.12-2.07,13.59-6.2,19.4     c-4.14,5.81-10.5,9.77-19.09,11.86l27.02,45.24H450.69z M411.88,660.11h19.79c6.7,0,11.76-1.67,15.16-5.03     c3.4-3.35,5.1-7.85,5.1-13.51c0-5.65-1.68-10.07-5.03-13.27c-3.35-3.19-8.43-4.79-15.24-4.79h-19.79V660.11z"/>
			<path d="M559.08,695.77h-45.72l-7.86,22.3h-18.69l39.12-109.33h20.74l39.12,109.33h-18.85L559.08,695.77z M554.05,681.16     l-17.75-50.74l-17.91,50.74H554.05z"/>
			<path d="M620.5,608.89v69.59c0,8.28,2.17,14.51,6.52,18.7c4.34,4.19,10.39,6.28,18.14,6.28c7.86,0,13.95-2.1,18.3-6.28     c4.34-4.19,6.52-10.42,6.52-18.7v-69.59h17.91v69.28c0,8.9-1.94,16.44-5.81,22.62c-3.87,6.18-9.06,10.79-15.55,13.83     c-6.49,3.04-13.67,4.56-21.52,4.56c-7.85,0-15-1.52-21.44-4.56s-11.55-7.65-15.32-13.83c-3.77-6.17-5.66-13.72-5.66-22.62v-69.28     H620.5z"/>
			<path d="M826.14,608.89v109.18h-17.91V643.3l-33.31,74.77h-12.41l-33.46-74.77v74.77h-17.91V608.89h19.32l38.33,85.62     l38.17-85.62H826.14z"/>
			<path d="M915.53,695.77h-45.72l-7.86,22.3h-18.69l39.12-109.33h20.74l39.12,109.33h-18.85L915.53,695.77z M910.5,681.16     l-17.75-50.74l-17.91,50.74H910.5z"/>
		</g>
	</g>
	<g>
		<path d="M516.15,802.32c2.31-3.94,5.45-7.02,9.41-9.23c3.96-2.22,8.3-3.32,13.02-3.32c5.4,0,10.2,1.33,14.41,3.98    c4.21,2.66,7.26,6.41,9.15,11.27h-9.99c-1.31-2.68-3.14-4.67-5.47-5.98c-2.34-1.31-5.03-1.97-8.1-1.97    c-3.36,0-6.35,0.75-8.97,2.26c-2.63,1.51-4.68,3.67-6.16,6.49c-1.49,2.82-2.23,6.1-2.23,9.85s0.74,7.03,2.23,9.85    c1.48,2.82,3.54,5,6.16,6.53c2.63,1.53,5.62,2.3,8.97,2.3c3.06,0,5.76-0.66,8.1-1.97c2.34-1.31,4.16-3.31,5.47-5.98h9.99    c-1.9,4.87-4.95,8.61-9.15,11.24c-4.21,2.63-9.01,3.94-14.41,3.94c-4.77,0-9.12-1.1-13.06-3.32c-3.94-2.21-7.06-5.29-9.37-9.23    s-3.46-8.39-3.46-13.35C512.69,810.71,513.84,806.26,516.15,802.32z"/>
		<path d="M580.16,797.14v14.88h17.51v6.78h-17.51v15.54h19.7v6.78h-28.01v-50.77h28.01v6.78H580.16z"/>
		<path d="M651.72,841.13h-8.32l-25.02-37.86v37.86h-8.31v-50.77h8.31l25.02,37.79v-37.79h8.32V841.13z"/>
		<path d="M695.42,790.43v6.78h-13.5v43.92h-8.31v-43.92h-13.57v-6.78H695.42z"/>
		<path d="M730.14,841.13l-11.67-20.28h-6.35v20.28h-8.31v-50.7h17.51c3.89,0,7.19,0.68,9.89,2.04c2.7,1.36,4.72,3.19,6.05,5.47    c1.34,2.29,2.01,4.84,2.01,7.66c0,3.31-0.96,6.31-2.88,9.01c-1.92,2.7-4.88,4.53-8.86,5.51l12.55,21.01H730.14z M712.12,814.21    h9.19c3.11,0,5.46-0.78,7.04-2.34c1.58-1.55,2.37-3.64,2.37-6.27c0-2.62-0.78-4.68-2.34-6.16c-1.56-1.48-3.92-2.23-7.08-2.23    h-9.19V814.21z"/>
		<path d="M758.15,790.43v32.32c0,3.84,1.01,6.73,3.02,8.68c2.02,1.95,4.83,2.92,8.43,2.92c3.65,0,6.48-0.97,8.5-2.92    c2.02-1.94,3.03-4.84,3.03-8.68v-32.32h8.32v32.17c0,4.13-0.9,7.64-2.7,10.5c-1.8,2.87-4.21,5.01-7.22,6.42    c-3.02,1.41-6.35,2.12-10,2.12c-3.65,0-6.96-0.71-9.96-2.12c-2.99-1.41-5.36-3.55-7.11-6.42c-1.75-2.87-2.63-6.37-2.63-10.5    v-32.17H758.15z"/>
		<path d="M849.95,793.53c4.06,2.07,7.2,5.03,9.41,8.9c2.21,3.87,3.32,8.37,3.32,13.53c0,5.15-1.11,9.63-3.32,13.42    c-2.21,3.8-5.35,6.7-9.41,8.72c-4.06,2.02-8.79,3.03-14.19,3.03h-16.56v-50.7h16.56C841.16,790.43,845.89,791.46,849.95,793.53z     M849.41,829.53c3.16-3.21,4.74-7.73,4.74-13.57c0-5.89-1.58-10.48-4.74-13.79c-3.16-3.31-7.71-4.96-13.64-4.96h-8.24v37.13h8.24    C841.7,834.34,846.24,832.74,849.41,829.53z"/>
		<path d="M879.24,797.14v14.88h17.51v6.78h-17.51v15.54h19.7v6.78h-28.01v-50.77h28.01v6.78H879.24z"/>
		<path d="M961.74,812.82c-1.22,2.29-3.16,4.15-5.84,5.58c-2.67,1.43-6.1,2.15-10.29,2.15h-9.19v20.57h-8.31v-50.7h17.51    c3.89,0,7.19,0.67,9.89,2.01c2.7,1.34,4.72,3.15,6.05,5.43c1.34,2.29,2.01,4.84,2.01,7.66    C963.57,808.1,962.96,810.54,961.74,812.82z M952.7,811.62c1.56-1.43,2.34-3.46,2.34-6.09c0-5.54-3.14-8.32-9.41-8.32h-9.19v16.56    h9.19C948.78,813.77,951.14,813.06,952.7,811.62z"/>
		<path d="M979.03,839.85c-2.72-1.19-4.86-2.88-6.42-5.07c-1.56-2.19-2.34-4.74-2.34-7.66h8.9c0.19,2.19,1.06,3.99,2.59,5.4    c1.53,1.41,3.68,2.11,6.46,2.11c2.87,0,5.1-0.69,6.71-2.08c1.61-1.38,2.4-3.17,2.4-5.36c0-1.7-0.49-3.08-1.49-4.15    c-1-1.07-2.24-1.9-3.73-2.48c-1.48-0.59-3.53-1.22-6.16-1.9c-3.31-0.88-5.99-1.76-8.06-2.67c-2.07-0.9-3.83-2.3-5.29-4.19    s-2.19-4.43-2.19-7.59c0-2.92,0.73-5.47,2.19-7.66s3.5-3.87,6.13-5.03c2.63-1.17,5.67-1.75,9.12-1.75c4.91,0,8.93,1.23,12.07,3.69    s4.88,5.82,5.21,10.1h-9.19c-0.15-1.85-1.02-3.43-2.63-4.74c-1.61-1.31-3.71-1.97-6.34-1.97c-2.39,0-4.33,0.61-5.84,1.82    c-1.51,1.22-2.26,2.97-2.26,5.25c0,1.56,0.48,2.83,1.42,3.83c0.95,1,2.15,1.79,3.61,2.37c1.46,0.58,3.45,1.22,5.98,1.9    c3.36,0.92,6.09,1.85,8.21,2.78c2.12,0.92,3.91,2.35,5.4,4.26c1.49,1.92,2.23,4.49,2.23,7.7c0,2.57-0.7,5.01-2.09,7.29    c-1.38,2.29-3.4,4.12-6.05,5.51c-2.65,1.38-5.78,2.08-9.37,2.08C984.82,841.64,981.75,841.04,979.03,839.85z"/>
		<path d="M1023.89,790.43v50.7h-8.32v-50.7H1023.89z"/>
		<path d="M1075.32,790.43v50.7H1067v-22.18h-23.85v22.18h-8.32v-50.7h8.32v21.74H1067v-21.74H1075.32z"/>
		<path d="M1096.36,838.32c-3.96-2.22-7.1-5.3-9.41-9.26s-3.46-8.43-3.46-13.39c0-4.96,1.16-9.41,3.46-13.35    c2.31-3.94,5.45-7.02,9.41-9.23c3.96-2.22,8.3-3.32,13.02-3.32c4.77,0,9.13,1.11,13.1,3.32c3.96,2.21,7.09,5.28,9.38,9.23    c2.28,3.94,3.43,8.38,3.43,13.35c0,4.96-1.15,9.42-3.43,13.39c-2.29,3.96-5.41,7.05-9.38,9.26c-3.96,2.21-8.33,3.32-13.1,3.32    C1104.66,841.64,1100.32,840.53,1096.36,838.32z M1118.35,832.12c2.62-1.53,4.68-3.72,6.16-6.57c1.49-2.85,2.22-6.14,2.22-9.88    s-0.74-7.03-2.22-9.85c-1.49-2.82-3.54-4.98-6.16-6.49c-2.63-1.5-5.62-2.26-8.98-2.26c-3.35,0-6.34,0.75-8.97,2.26    c-2.62,1.51-4.68,3.67-6.16,6.49c-1.48,2.82-2.22,6.1-2.22,9.85s0.74,7.04,2.22,9.88s3.54,5.03,6.16,6.57    c2.63,1.53,5.62,2.3,8.97,2.3C1112.73,834.42,1115.73,833.65,1118.35,832.12z"/>
		<path d="M1176.2,790.43v6.78h-13.5v43.92h-8.32v-43.92h-13.57v-6.78H1176.2z"/>
		<path d="M1192.91,797.14v14.88h17.5v6.78h-17.5v15.54h19.69v6.78h-28.01v-50.77h28.01v6.78H1192.91z"/>
		<path d="M1249.15,841.13l-11.68-20.28h-6.34v20.28h-8.32v-50.7h17.51c3.89,0,7.18,0.68,9.88,2.04c2.7,1.36,4.72,3.19,6.06,5.47    c1.34,2.29,2.01,4.84,2.01,7.66c0,3.31-0.96,6.31-2.88,9.01c-1.92,2.7-4.88,4.53-8.86,5.51l12.54,21.01H1249.15z M1231.13,814.21    h9.19c3.11,0,5.46-0.78,7.04-2.34c1.58-1.55,2.37-3.64,2.37-6.27c0-2.62-0.78-4.68-2.34-6.16s-3.92-2.23-7.08-2.23h-9.19V814.21z"/>
		<path d="M1299.48,830.77h-21.23l-3.65,10.36h-8.68l18.16-50.77h9.63l18.17,50.77h-8.75L1299.48,830.77z M1297.14,823.98    l-8.24-23.56l-8.31,23.56H1297.14z"/>
		<path d="M1353.39,812.82c-1.22,2.29-3.16,4.15-5.84,5.58c-2.67,1.43-6.1,2.15-10.29,2.15h-9.19v20.57h-8.32v-50.7h17.51    c3.89,0,7.18,0.67,9.88,2.01c2.7,1.34,4.72,3.15,6.06,5.43c1.34,2.29,2.01,4.84,2.01,7.66    C1355.21,808.1,1354.6,810.54,1353.39,812.82z M1344.34,811.62c1.56-1.43,2.34-3.46,2.34-6.09c0-5.54-3.14-8.32-9.41-8.32h-9.19    v16.56h9.19C1340.43,813.77,1342.78,813.06,1344.34,811.62z"/>
		<path d="M1371.48,790.43v50.7h-8.32v-50.7H1371.48z"/>
		<path d="M1390.74,797.14v14.88h17.5v6.78h-17.5v15.54h19.69v6.78h-28.01v-50.77h28.01v6.78H1390.74z"/>
	</g>
	<path fill="#EFDCFF" d="M1112.98,276.63c55.62,47.32,46.09,99.03,7.62,211.89c-19.85,58.22-81.66,93.34-110.97,100.47   c-45.87,11.15-203.32-65.25-212.73-134.01s0.5-119.24,76.02-168.34S1038.11,212.93,1112.98,276.63z"/>
	<g>
		<path fill="#00B5AC" d="M1248.75,317.27c-13.02-58.73-160.25-24.48-273.08,102.92c-123.3-123.3-253.29-158.45-274.27-102.35    c-14.59,39,74.45,79.42,196.33,109.7c-81.38,1.51-157.55,18.64-159.98,56.52c-5.53,86.24,240.28-35.8,240.28-35.8    c9.87,4.32,252.03,110.46,238.11,26.96c-7.02-42.08-89.25-50.39-163.81-49.57C1149.44,389.3,1258.01,359.04,1248.75,317.27z"/>
		<g>
			<path fill="none" d="M983.34,370.43c1.88-2.67,2.11-5.99,0.61-8.88c-1.48-2.85-4.25-4.57-7.45-4.62     c-3.2,0.06-5.97,1.77-7.45,4.62c-1.5,2.9-1.27,6.22,0.61,8.88l6.84,10.19L983.34,370.43z"/>
			<path fill="none" d="M1022.32,747.76c3.36,1.18,5.95,0.57,7.92-1.87c2.04-2.53,1.78-4.21,1.41-5.26     c-2.29-6.48-17.65-12.64-30.08-16.09C1008.39,737.69,1015.84,745.48,1022.32,747.76z"/>
			<path fill="none" d="M1027.66,429.42c0.28-0.17,0.57-0.31,0.9-0.39c7.57-1.95,15.17-3.95,22.6-5.96l0.06-0.02     c127.25-34.43,200.61-68.72,201.27-94.09c0.22-8.28-3.85-14.09-12.43-17.79c-41.21-17.73-168.49,22.03-260.28,113.25     c0.01,5.5,0.03,10.99,0.05,16.45c4.35-0.98,12.84-2.94,24.14-5.69c1.8-0.44,3.61,0.66,4.05,2.46c0.44,1.8-0.66,3.61-2.46,4.05     c-5.93,1.44-11.1,2.67-15.3,3.65c58.99,17.66,183.12,49.02,208.82,28.57c3.24-2.57,4.58-5.77,4.24-10.06     c-1.31-16.64-28.34-24.83-50.78-28.76c-25.21-4.42-58.85-6.26-99.97-5.48c-7.35,1.99-14.86,3.97-22.34,5.89     c-0.28,0.07-0.56,0.11-0.84,0.11c-1.49,0-2.85-1-3.24-2.51c-0.28-1.09,0.01-2.18,0.68-2.98L1027.66,429.42z"/>
			<path fill="none" d="M945.73,438.07c0.44-1.8,2.25-2.9,4.04-2.47c11.31,2.74,19.59,4.63,23.37,5.49     c-0.02-5.29-0.04-10.58-0.06-15.88c-0.09-0.08-0.19-0.14-0.28-0.23c-91.84-91.62-219.56-131.58-260.85-113.81     c-8.58,3.69-12.65,9.51-12.43,17.79c0.66,25.36,74.02,59.66,201.27,94.09c8,2.17,16.21,4.33,24.4,6.43     c1.79,0.46,2.87,2.28,2.41,4.08c-0.39,1.51-1.75,2.52-3.24,2.52c-0.28,0-0.56-0.03-0.83-0.11c-8.08-2.07-16.18-4.21-24.09-6.34     c-41.12-0.79-74.76,1.05-99.97,5.48c-22.44,3.93-49.46,12.12-50.78,28.76c-0.34,4.29,1.01,7.48,4.24,10.05     c25.7,20.45,149.83-10.9,208.82-28.57c-3.79-0.89-8.36-1.97-13.57-3.23C946.4,441.68,945.29,439.87,945.73,438.07z"/>
			<path d="M1259.19,329.14c0.29-11.01-5.41-19.35-16.48-24.12c-22.53-9.69-67.09-3.65-116.31,15.77     c-53.43,21.08-105.22,54.43-146.64,94.29c-0.01-9.11-0.02-18.27-0.02-27.45l9.41-13.34c3.3-4.68,3.71-10.74,1.08-15.83     c-2.59-4.99-7.64-8.12-13.24-8.24l-0.32,0c-5.6,0.11-10.65,3.25-13.24,8.24c-2.64,5.08-2.22,11.15,1.08,15.83l8.52,13.34     c0,9.81,0,18.39,0.02,28.24c-41.55-40.21-93.67-73.85-147.46-95.07c-49.21-19.42-93.78-25.46-116.31-15.77     c-11.07,4.76-16.77,13.1-16.48,24.12c0.46,17.73,24.49,36.33,73.46,56.86c28.69,12.03,65.12,24.37,108.52,36.78     c-30.49,0.24-56.15,2.16-76.49,5.73c-36.03,6.32-54.97,18.04-56.3,34.83c-0.52,6.52,1.76,11.85,6.75,15.82     c6.8,5.41,19.02,8.11,36.57,8.11c22.08,0,52.58-4.28,91.31-12.84c44.3-9.79,85.82-22.28,96.45-25.55v161.04     c0,50.58,8.51,86.91,19.19,110.57c0.09,0.32,0.23,0.62,0.41,0.9c8.88,19.29,19.18,29.92,27.34,32.8     c1.83,0.64,3.62,0.96,5.33,0.96c3.97,0,7.52-1.71,10.17-4.99c3.85-4.78,3.5-9.06,2.53-11.81c-4.47-12.66-32.76-20.05-40.29-21.81     c-10.01-23.2-17.86-58.91-17.86-106.62V449.19c12.05,3.68,52.44,15.74,95.44,25.24c38.72,8.56,69.23,12.84,91.31,12.84     c17.55,0,29.77-2.7,36.57-8.11c5-3.98,7.27-9.3,6.75-15.82c-1.32-16.79-20.27-28.51-56.3-34.83c-20.34-3.57-46-5.48-76.48-5.73     c43.4-12.4,79.82-24.74,108.51-36.77C1234.7,365.47,1258.73,346.87,1259.19,329.14z M1031.65,740.63     c0.37,1.05,0.63,2.73-1.41,5.26c-1.97,2.44-4.55,3.05-7.92,1.87c-6.48-2.28-13.92-10.07-20.75-23.22     C1014,727.99,1029.36,734.14,1031.65,740.63z M969.65,370.43c-1.88-2.67-2.11-5.99-0.61-8.88c1.48-2.85,4.25-4.57,7.45-4.62     c3.2,0.06,5.97,1.77,7.45,4.62c1.5,2.9,1.27,6.22-0.61,8.88l-6.84,10.19L969.65,370.43z M752.95,473.91     c-3.23-2.57-4.58-5.77-4.24-10.05c1.31-16.64,28.34-24.83,50.78-28.76c25.21-4.42,58.85-6.26,99.97-5.48     c7.9,2.14,16,4.27,24.09,6.34c0.28,0.07,0.56,0.11,0.83,0.11c1.49,0,2.85-1.01,3.24-2.52c0.46-1.79-0.62-3.62-2.41-4.08     c-8.19-2.1-16.4-4.26-24.4-6.43c-127.25-34.43-200.61-68.72-201.27-94.09c-0.22-8.28,3.85-14.1,12.43-17.79     c41.29-17.77,169.01,22.19,260.85,113.81c0.09,0.09,0.19,0.15,0.28,0.23c0.01,5.29,0.03,10.59,0.06,15.88     c-3.79-0.85-12.06-2.75-23.37-5.49c-1.8-0.44-3.61,0.67-4.04,2.47c-0.44,1.8,0.67,3.61,2.47,4.04c5.21,1.26,9.78,2.35,13.57,3.23     C902.77,463.01,778.64,494.36,752.95,473.91z M1026.14,433.11c0.39,1.51,1.75,2.51,3.24,2.51c0.28,0,0.56-0.03,0.84-0.11     c7.48-1.93,15-3.91,22.34-5.89c41.13-0.79,74.76,1.05,99.97,5.48c22.44,3.93,49.46,12.12,50.78,28.76     c0.34,4.29-1.01,7.48-4.24,10.06c-25.7,20.45-149.83-10.9-208.82-28.57c4.2-0.98,9.37-2.21,15.3-3.65     c1.8-0.44,2.9-2.25,2.46-4.05c-0.44-1.8-2.25-2.9-4.05-2.46c-11.3,2.75-19.79,4.7-24.14,5.69c-0.02-5.46-0.04-10.95-0.05-16.45     c91.79-91.22,219.07-130.98,260.28-113.25c8.58,3.69,12.65,9.51,12.43,17.79c-0.66,25.36-74.02,59.66-201.27,94.09l-0.06,0.02     c-7.43,2.01-15.03,4.02-22.6,5.96c-0.33,0.08-0.62,0.23-0.9,0.39l-0.83,0.7C1026.16,430.92,1025.86,432.02,1026.14,433.11z"/>
		</g>
	</g>
</g>
</svg>